<mxfile host="app.diagrams.net" modified="2022-09-15T09:03:02.661Z" agent="5.0 (Macintosh; Intel Mac OS X 10_15_7) AppleWebKit/537.36 (KHTML, like Gecko) Chrome/104.0.0.0 Safari/537.36" etag="bVFnDZeGbqW2G0o7Nb0T" version="20.3.0" type="github">
  <diagram id="38toCDtvO72y1MS8dI_N" name="第 1 页">
    <mxGraphModel dx="892" dy="609" grid="1" gridSize="10" guides="1" tooltips="1" connect="1" arrows="1" fold="1" page="1" pageScale="1" pageWidth="827" pageHeight="1169" math="0" shadow="0">
      <root>
        <mxCell id="0" />
        <mxCell id="1" parent="0" />
        <mxCell id="1rM6C2h5TiVr_Z7WdG6Z-2" value="" style="shape=process;whiteSpace=wrap;html=1;backgroundOutline=1;" vertex="1" parent="1">
          <mxGeometry x="30" y="350" width="1000" height="100" as="geometry" />
        </mxCell>
        <mxCell id="1rM6C2h5TiVr_Z7WdG6Z-3" value="" style="points=[];aspect=fixed;html=1;align=center;shadow=0;dashed=0;image;image=img/lib/allied_telesis/security/Surveillance_Camera_Ceiling.svg;" vertex="1" parent="1">
          <mxGeometry x="150" y="290" width="37.2" height="35.4" as="geometry" />
        </mxCell>
        <mxCell id="1rM6C2h5TiVr_Z7WdG6Z-4" value="" style="points=[];aspect=fixed;html=1;align=center;shadow=0;dashed=0;image;image=img/lib/allied_telesis/security/Surveillance_Camera_Ceiling.svg;" vertex="1" parent="1">
          <mxGeometry x="310" y="290" width="37.2" height="35.4" as="geometry" />
        </mxCell>
        <mxCell id="1rM6C2h5TiVr_Z7WdG6Z-6" value="" style="points=[];aspect=fixed;html=1;align=center;shadow=0;dashed=0;image;image=img/lib/allied_telesis/security/Surveillance_Camera_Ceiling.svg;" vertex="1" parent="1">
          <mxGeometry x="640" y="290" width="37.2" height="35.4" as="geometry" />
        </mxCell>
        <mxCell id="1rM6C2h5TiVr_Z7WdG6Z-8" value="人员2" style="shape=umlActor;verticalLabelPosition=bottom;verticalAlign=top;html=1;" vertex="1" parent="1">
          <mxGeometry x="50" y="360" width="20" height="40" as="geometry" />
        </mxCell>
        <mxCell id="1rM6C2h5TiVr_Z7WdG6Z-9" value="" style="points=[];aspect=fixed;html=1;align=center;shadow=0;dashed=0;image;image=img/lib/allied_telesis/security/Surveillance_Camera_Ceiling.svg;" vertex="1" parent="1">
          <mxGeometry x="790" y="290" width="37.2" height="35.4" as="geometry" />
        </mxCell>
        <mxCell id="1rM6C2h5TiVr_Z7WdG6Z-10" value="" style="points=[];aspect=fixed;html=1;align=center;shadow=0;dashed=0;image;image=img/lib/allied_telesis/security/Surveillance_Camera_Ceiling.svg;" vertex="1" parent="1">
          <mxGeometry x="930" y="290" width="37.2" height="35.4" as="geometry" />
        </mxCell>
        <mxCell id="1rM6C2h5TiVr_Z7WdG6Z-11" value="人员1" style="shape=umlActor;verticalLabelPosition=bottom;verticalAlign=top;html=1;" vertex="1" parent="1">
          <mxGeometry x="90" y="370" width="20" height="40" as="geometry" />
        </mxCell>
        <mxCell id="1rM6C2h5TiVr_Z7WdG6Z-12" value="" style="shape=sumEllipse;perimeter=ellipsePerimeter;whiteSpace=wrap;html=1;backgroundOutline=1;" vertex="1" parent="1">
          <mxGeometry x="150" y="375" width="10" height="10" as="geometry" />
        </mxCell>
        <mxCell id="1rM6C2h5TiVr_Z7WdG6Z-13" value="" style="shape=sumEllipse;perimeter=ellipsePerimeter;whiteSpace=wrap;html=1;backgroundOutline=1;" vertex="1" parent="1">
          <mxGeometry x="160" y="400" width="10" height="10" as="geometry" />
        </mxCell>
        <mxCell id="1rM6C2h5TiVr_Z7WdG6Z-14" value="" style="shape=sumEllipse;perimeter=ellipsePerimeter;whiteSpace=wrap;html=1;backgroundOutline=1;" vertex="1" parent="1">
          <mxGeometry x="180" y="375" width="10" height="10" as="geometry" />
        </mxCell>
        <mxCell id="1rM6C2h5TiVr_Z7WdG6Z-15" value="" style="shape=sumEllipse;perimeter=ellipsePerimeter;whiteSpace=wrap;html=1;backgroundOutline=1;" vertex="1" parent="1">
          <mxGeometry x="190" y="400" width="10" height="10" as="geometry" />
        </mxCell>
        <mxCell id="1rM6C2h5TiVr_Z7WdG6Z-16" value="" style="shape=sumEllipse;perimeter=ellipsePerimeter;whiteSpace=wrap;html=1;backgroundOutline=1;" vertex="1" parent="1">
          <mxGeometry x="210" y="372.5" width="10" height="10" as="geometry" />
        </mxCell>
        <mxCell id="1rM6C2h5TiVr_Z7WdG6Z-17" value="" style="shape=sumEllipse;perimeter=ellipsePerimeter;whiteSpace=wrap;html=1;backgroundOutline=1;" vertex="1" parent="1">
          <mxGeometry x="220" y="397.5" width="10" height="10" as="geometry" />
        </mxCell>
        <mxCell id="1rM6C2h5TiVr_Z7WdG6Z-18" value="" style="shape=sumEllipse;perimeter=ellipsePerimeter;whiteSpace=wrap;html=1;backgroundOutline=1;" vertex="1" parent="1">
          <mxGeometry x="240" y="375" width="10" height="10" as="geometry" />
        </mxCell>
        <mxCell id="1rM6C2h5TiVr_Z7WdG6Z-19" value="" style="shape=sumEllipse;perimeter=ellipsePerimeter;whiteSpace=wrap;html=1;backgroundOutline=1;" vertex="1" parent="1">
          <mxGeometry x="250" y="400" width="10" height="10" as="geometry" />
        </mxCell>
        <mxCell id="1rM6C2h5TiVr_Z7WdG6Z-20" value="" style="shape=sumEllipse;perimeter=ellipsePerimeter;whiteSpace=wrap;html=1;backgroundOutline=1;" vertex="1" parent="1">
          <mxGeometry x="270" y="375" width="10" height="10" as="geometry" />
        </mxCell>
        <mxCell id="1rM6C2h5TiVr_Z7WdG6Z-21" value="" style="shape=sumEllipse;perimeter=ellipsePerimeter;whiteSpace=wrap;html=1;backgroundOutline=1;" vertex="1" parent="1">
          <mxGeometry x="280" y="400" width="10" height="10" as="geometry" />
        </mxCell>
        <mxCell id="1rM6C2h5TiVr_Z7WdG6Z-22" value="" style="shape=sumEllipse;perimeter=ellipsePerimeter;whiteSpace=wrap;html=1;backgroundOutline=1;" vertex="1" parent="1">
          <mxGeometry x="300" y="375" width="10" height="10" as="geometry" />
        </mxCell>
        <mxCell id="1rM6C2h5TiVr_Z7WdG6Z-23" value="" style="shape=sumEllipse;perimeter=ellipsePerimeter;whiteSpace=wrap;html=1;backgroundOutline=1;" vertex="1" parent="1">
          <mxGeometry x="310" y="400" width="10" height="10" as="geometry" />
        </mxCell>
        <mxCell id="1rM6C2h5TiVr_Z7WdG6Z-24" value="" style="shape=sumEllipse;perimeter=ellipsePerimeter;whiteSpace=wrap;html=1;backgroundOutline=1;" vertex="1" parent="1">
          <mxGeometry x="327.2" y="372.5" width="10" height="10" as="geometry" />
        </mxCell>
        <mxCell id="1rM6C2h5TiVr_Z7WdG6Z-25" value="" style="shape=sumEllipse;perimeter=ellipsePerimeter;whiteSpace=wrap;html=1;backgroundOutline=1;" vertex="1" parent="1">
          <mxGeometry x="337.2" y="397.5" width="10" height="10" as="geometry" />
        </mxCell>
        <mxCell id="1rM6C2h5TiVr_Z7WdG6Z-26" value="" style="shape=sumEllipse;perimeter=ellipsePerimeter;whiteSpace=wrap;html=1;backgroundOutline=1;" vertex="1" parent="1">
          <mxGeometry x="360" y="370" width="10" height="10" as="geometry" />
        </mxCell>
        <mxCell id="1rM6C2h5TiVr_Z7WdG6Z-27" value="" style="shape=sumEllipse;perimeter=ellipsePerimeter;whiteSpace=wrap;html=1;backgroundOutline=1;" vertex="1" parent="1">
          <mxGeometry x="370" y="395" width="10" height="10" as="geometry" />
        </mxCell>
        <mxCell id="1rM6C2h5TiVr_Z7WdG6Z-28" value="" style="shape=sumEllipse;perimeter=ellipsePerimeter;whiteSpace=wrap;html=1;backgroundOutline=1;" vertex="1" parent="1">
          <mxGeometry x="160" y="385" width="10" height="10" as="geometry" />
        </mxCell>
        <mxCell id="1rM6C2h5TiVr_Z7WdG6Z-29" value="" style="shape=sumEllipse;perimeter=ellipsePerimeter;whiteSpace=wrap;html=1;backgroundOutline=1;" vertex="1" parent="1">
          <mxGeometry x="170" y="410" width="10" height="10" as="geometry" />
        </mxCell>
        <mxCell id="1rM6C2h5TiVr_Z7WdG6Z-30" value="" style="shape=sumEllipse;perimeter=ellipsePerimeter;whiteSpace=wrap;html=1;backgroundOutline=1;" vertex="1" parent="1">
          <mxGeometry x="190" y="385" width="10" height="10" as="geometry" />
        </mxCell>
        <mxCell id="1rM6C2h5TiVr_Z7WdG6Z-31" value="" style="shape=sumEllipse;perimeter=ellipsePerimeter;whiteSpace=wrap;html=1;backgroundOutline=1;" vertex="1" parent="1">
          <mxGeometry x="200" y="410" width="10" height="10" as="geometry" />
        </mxCell>
        <mxCell id="1rM6C2h5TiVr_Z7WdG6Z-32" value="" style="shape=sumEllipse;perimeter=ellipsePerimeter;whiteSpace=wrap;html=1;backgroundOutline=1;" vertex="1" parent="1">
          <mxGeometry x="220" y="382.5" width="10" height="10" as="geometry" />
        </mxCell>
        <mxCell id="1rM6C2h5TiVr_Z7WdG6Z-33" value="" style="shape=sumEllipse;perimeter=ellipsePerimeter;whiteSpace=wrap;html=1;backgroundOutline=1;" vertex="1" parent="1">
          <mxGeometry x="230" y="407.5" width="10" height="10" as="geometry" />
        </mxCell>
        <mxCell id="1rM6C2h5TiVr_Z7WdG6Z-34" value="" style="shape=sumEllipse;perimeter=ellipsePerimeter;whiteSpace=wrap;html=1;backgroundOutline=1;" vertex="1" parent="1">
          <mxGeometry x="250" y="385" width="10" height="10" as="geometry" />
        </mxCell>
        <mxCell id="1rM6C2h5TiVr_Z7WdG6Z-35" value="" style="shape=sumEllipse;perimeter=ellipsePerimeter;whiteSpace=wrap;html=1;backgroundOutline=1;" vertex="1" parent="1">
          <mxGeometry x="260" y="410" width="10" height="10" as="geometry" />
        </mxCell>
        <mxCell id="1rM6C2h5TiVr_Z7WdG6Z-36" value="" style="shape=sumEllipse;perimeter=ellipsePerimeter;whiteSpace=wrap;html=1;backgroundOutline=1;" vertex="1" parent="1">
          <mxGeometry x="280" y="385" width="10" height="10" as="geometry" />
        </mxCell>
        <mxCell id="1rM6C2h5TiVr_Z7WdG6Z-37" value="" style="shape=sumEllipse;perimeter=ellipsePerimeter;whiteSpace=wrap;html=1;backgroundOutline=1;" vertex="1" parent="1">
          <mxGeometry x="290" y="410" width="10" height="10" as="geometry" />
        </mxCell>
        <mxCell id="1rM6C2h5TiVr_Z7WdG6Z-38" value="" style="shape=sumEllipse;perimeter=ellipsePerimeter;whiteSpace=wrap;html=1;backgroundOutline=1;" vertex="1" parent="1">
          <mxGeometry x="310" y="385" width="10" height="10" as="geometry" />
        </mxCell>
        <mxCell id="1rM6C2h5TiVr_Z7WdG6Z-39" value="" style="shape=sumEllipse;perimeter=ellipsePerimeter;whiteSpace=wrap;html=1;backgroundOutline=1;" vertex="1" parent="1">
          <mxGeometry x="320" y="410" width="10" height="10" as="geometry" />
        </mxCell>
        <mxCell id="1rM6C2h5TiVr_Z7WdG6Z-40" value="" style="shape=sumEllipse;perimeter=ellipsePerimeter;whiteSpace=wrap;html=1;backgroundOutline=1;" vertex="1" parent="1">
          <mxGeometry x="337.2" y="382.5" width="10" height="10" as="geometry" />
        </mxCell>
        <mxCell id="1rM6C2h5TiVr_Z7WdG6Z-41" value="" style="shape=sumEllipse;perimeter=ellipsePerimeter;whiteSpace=wrap;html=1;backgroundOutline=1;" vertex="1" parent="1">
          <mxGeometry x="347.2" y="407.5" width="10" height="10" as="geometry" />
        </mxCell>
        <mxCell id="1rM6C2h5TiVr_Z7WdG6Z-42" value="" style="shape=sumEllipse;perimeter=ellipsePerimeter;whiteSpace=wrap;html=1;backgroundOutline=1;" vertex="1" parent="1">
          <mxGeometry x="370" y="380" width="10" height="10" as="geometry" />
        </mxCell>
        <mxCell id="1rM6C2h5TiVr_Z7WdG6Z-43" value="" style="shape=sumEllipse;perimeter=ellipsePerimeter;whiteSpace=wrap;html=1;backgroundOutline=1;" vertex="1" parent="1">
          <mxGeometry x="380" y="405" width="10" height="10" as="geometry" />
        </mxCell>
        <mxCell id="1rM6C2h5TiVr_Z7WdG6Z-44" value="" style="shape=sumEllipse;perimeter=ellipsePerimeter;whiteSpace=wrap;html=1;backgroundOutline=1;" vertex="1" parent="1">
          <mxGeometry x="160" y="385" width="10" height="10" as="geometry" />
        </mxCell>
        <mxCell id="1rM6C2h5TiVr_Z7WdG6Z-45" value="" style="shape=sumEllipse;perimeter=ellipsePerimeter;whiteSpace=wrap;html=1;backgroundOutline=1;" vertex="1" parent="1">
          <mxGeometry x="170" y="410" width="10" height="10" as="geometry" />
        </mxCell>
        <mxCell id="1rM6C2h5TiVr_Z7WdG6Z-46" value="" style="shape=sumEllipse;perimeter=ellipsePerimeter;whiteSpace=wrap;html=1;backgroundOutline=1;" vertex="1" parent="1">
          <mxGeometry x="190" y="385" width="10" height="10" as="geometry" />
        </mxCell>
        <mxCell id="1rM6C2h5TiVr_Z7WdG6Z-47" value="" style="shape=sumEllipse;perimeter=ellipsePerimeter;whiteSpace=wrap;html=1;backgroundOutline=1;" vertex="1" parent="1">
          <mxGeometry x="200" y="410" width="10" height="10" as="geometry" />
        </mxCell>
        <mxCell id="1rM6C2h5TiVr_Z7WdG6Z-48" value="" style="shape=sumEllipse;perimeter=ellipsePerimeter;whiteSpace=wrap;html=1;backgroundOutline=1;" vertex="1" parent="1">
          <mxGeometry x="220" y="382.5" width="10" height="10" as="geometry" />
        </mxCell>
        <mxCell id="1rM6C2h5TiVr_Z7WdG6Z-49" value="" style="shape=sumEllipse;perimeter=ellipsePerimeter;whiteSpace=wrap;html=1;backgroundOutline=1;" vertex="1" parent="1">
          <mxGeometry x="230" y="407.5" width="10" height="10" as="geometry" />
        </mxCell>
        <mxCell id="1rM6C2h5TiVr_Z7WdG6Z-50" value="" style="shape=sumEllipse;perimeter=ellipsePerimeter;whiteSpace=wrap;html=1;backgroundOutline=1;" vertex="1" parent="1">
          <mxGeometry x="250" y="385" width="10" height="10" as="geometry" />
        </mxCell>
        <mxCell id="1rM6C2h5TiVr_Z7WdG6Z-51" value="" style="shape=sumEllipse;perimeter=ellipsePerimeter;whiteSpace=wrap;html=1;backgroundOutline=1;" vertex="1" parent="1">
          <mxGeometry x="260" y="410" width="10" height="10" as="geometry" />
        </mxCell>
        <mxCell id="1rM6C2h5TiVr_Z7WdG6Z-52" value="" style="shape=sumEllipse;perimeter=ellipsePerimeter;whiteSpace=wrap;html=1;backgroundOutline=1;" vertex="1" parent="1">
          <mxGeometry x="280" y="385" width="10" height="10" as="geometry" />
        </mxCell>
        <mxCell id="1rM6C2h5TiVr_Z7WdG6Z-53" value="" style="shape=sumEllipse;perimeter=ellipsePerimeter;whiteSpace=wrap;html=1;backgroundOutline=1;" vertex="1" parent="1">
          <mxGeometry x="290" y="410" width="10" height="10" as="geometry" />
        </mxCell>
        <mxCell id="1rM6C2h5TiVr_Z7WdG6Z-54" value="" style="shape=sumEllipse;perimeter=ellipsePerimeter;whiteSpace=wrap;html=1;backgroundOutline=1;" vertex="1" parent="1">
          <mxGeometry x="310" y="385" width="10" height="10" as="geometry" />
        </mxCell>
        <mxCell id="1rM6C2h5TiVr_Z7WdG6Z-55" value="" style="shape=sumEllipse;perimeter=ellipsePerimeter;whiteSpace=wrap;html=1;backgroundOutline=1;" vertex="1" parent="1">
          <mxGeometry x="320" y="410" width="10" height="10" as="geometry" />
        </mxCell>
        <mxCell id="1rM6C2h5TiVr_Z7WdG6Z-56" value="" style="shape=sumEllipse;perimeter=ellipsePerimeter;whiteSpace=wrap;html=1;backgroundOutline=1;" vertex="1" parent="1">
          <mxGeometry x="337.2" y="382.5" width="10" height="10" as="geometry" />
        </mxCell>
        <mxCell id="1rM6C2h5TiVr_Z7WdG6Z-57" value="" style="shape=sumEllipse;perimeter=ellipsePerimeter;whiteSpace=wrap;html=1;backgroundOutline=1;" vertex="1" parent="1">
          <mxGeometry x="347.2" y="407.5" width="10" height="10" as="geometry" />
        </mxCell>
        <mxCell id="1rM6C2h5TiVr_Z7WdG6Z-58" value="" style="shape=sumEllipse;perimeter=ellipsePerimeter;whiteSpace=wrap;html=1;backgroundOutline=1;" vertex="1" parent="1">
          <mxGeometry x="370" y="380" width="10" height="10" as="geometry" />
        </mxCell>
        <mxCell id="1rM6C2h5TiVr_Z7WdG6Z-59" value="" style="shape=sumEllipse;perimeter=ellipsePerimeter;whiteSpace=wrap;html=1;backgroundOutline=1;" vertex="1" parent="1">
          <mxGeometry x="380" y="405" width="10" height="10" as="geometry" />
        </mxCell>
        <mxCell id="1rM6C2h5TiVr_Z7WdG6Z-60" value="" style="shape=sumEllipse;perimeter=ellipsePerimeter;whiteSpace=wrap;html=1;backgroundOutline=1;" vertex="1" parent="1">
          <mxGeometry x="170" y="395" width="10" height="10" as="geometry" />
        </mxCell>
        <mxCell id="1rM6C2h5TiVr_Z7WdG6Z-61" value="" style="shape=sumEllipse;perimeter=ellipsePerimeter;whiteSpace=wrap;html=1;backgroundOutline=1;" vertex="1" parent="1">
          <mxGeometry x="180" y="420" width="10" height="10" as="geometry" />
        </mxCell>
        <mxCell id="1rM6C2h5TiVr_Z7WdG6Z-62" value="" style="shape=sumEllipse;perimeter=ellipsePerimeter;whiteSpace=wrap;html=1;backgroundOutline=1;" vertex="1" parent="1">
          <mxGeometry x="200" y="395" width="10" height="10" as="geometry" />
        </mxCell>
        <mxCell id="1rM6C2h5TiVr_Z7WdG6Z-63" value="" style="shape=sumEllipse;perimeter=ellipsePerimeter;whiteSpace=wrap;html=1;backgroundOutline=1;" vertex="1" parent="1">
          <mxGeometry x="210" y="420" width="10" height="10" as="geometry" />
        </mxCell>
        <mxCell id="1rM6C2h5TiVr_Z7WdG6Z-64" value="" style="shape=sumEllipse;perimeter=ellipsePerimeter;whiteSpace=wrap;html=1;backgroundOutline=1;" vertex="1" parent="1">
          <mxGeometry x="230" y="392.5" width="10" height="10" as="geometry" />
        </mxCell>
        <mxCell id="1rM6C2h5TiVr_Z7WdG6Z-65" value="" style="shape=sumEllipse;perimeter=ellipsePerimeter;whiteSpace=wrap;html=1;backgroundOutline=1;" vertex="1" parent="1">
          <mxGeometry x="240" y="417.5" width="10" height="10" as="geometry" />
        </mxCell>
        <mxCell id="1rM6C2h5TiVr_Z7WdG6Z-66" value="" style="shape=sumEllipse;perimeter=ellipsePerimeter;whiteSpace=wrap;html=1;backgroundOutline=1;" vertex="1" parent="1">
          <mxGeometry x="260" y="395" width="10" height="10" as="geometry" />
        </mxCell>
        <mxCell id="1rM6C2h5TiVr_Z7WdG6Z-67" value="" style="shape=sumEllipse;perimeter=ellipsePerimeter;whiteSpace=wrap;html=1;backgroundOutline=1;" vertex="1" parent="1">
          <mxGeometry x="270" y="420" width="10" height="10" as="geometry" />
        </mxCell>
        <mxCell id="1rM6C2h5TiVr_Z7WdG6Z-68" value="" style="shape=sumEllipse;perimeter=ellipsePerimeter;whiteSpace=wrap;html=1;backgroundOutline=1;" vertex="1" parent="1">
          <mxGeometry x="290" y="395" width="10" height="10" as="geometry" />
        </mxCell>
        <mxCell id="1rM6C2h5TiVr_Z7WdG6Z-69" value="" style="shape=sumEllipse;perimeter=ellipsePerimeter;whiteSpace=wrap;html=1;backgroundOutline=1;" vertex="1" parent="1">
          <mxGeometry x="300" y="420" width="10" height="10" as="geometry" />
        </mxCell>
        <mxCell id="1rM6C2h5TiVr_Z7WdG6Z-70" value="" style="shape=sumEllipse;perimeter=ellipsePerimeter;whiteSpace=wrap;html=1;backgroundOutline=1;" vertex="1" parent="1">
          <mxGeometry x="320" y="395" width="10" height="10" as="geometry" />
        </mxCell>
        <mxCell id="1rM6C2h5TiVr_Z7WdG6Z-71" value="" style="shape=sumEllipse;perimeter=ellipsePerimeter;whiteSpace=wrap;html=1;backgroundOutline=1;" vertex="1" parent="1">
          <mxGeometry x="330" y="420" width="10" height="10" as="geometry" />
        </mxCell>
        <mxCell id="1rM6C2h5TiVr_Z7WdG6Z-72" value="" style="shape=sumEllipse;perimeter=ellipsePerimeter;whiteSpace=wrap;html=1;backgroundOutline=1;" vertex="1" parent="1">
          <mxGeometry x="347.2" y="392.5" width="10" height="10" as="geometry" />
        </mxCell>
        <mxCell id="1rM6C2h5TiVr_Z7WdG6Z-73" value="" style="shape=sumEllipse;perimeter=ellipsePerimeter;whiteSpace=wrap;html=1;backgroundOutline=1;" vertex="1" parent="1">
          <mxGeometry x="357.2" y="417.5" width="10" height="10" as="geometry" />
        </mxCell>
        <mxCell id="1rM6C2h5TiVr_Z7WdG6Z-74" value="" style="shape=sumEllipse;perimeter=ellipsePerimeter;whiteSpace=wrap;html=1;backgroundOutline=1;" vertex="1" parent="1">
          <mxGeometry x="380" y="390" width="10" height="10" as="geometry" />
        </mxCell>
        <mxCell id="1rM6C2h5TiVr_Z7WdG6Z-75" value="" style="shape=sumEllipse;perimeter=ellipsePerimeter;whiteSpace=wrap;html=1;backgroundOutline=1;" vertex="1" parent="1">
          <mxGeometry x="390" y="415" width="10" height="10" as="geometry" />
        </mxCell>
        <mxCell id="1rM6C2h5TiVr_Z7WdG6Z-76" value="" style="shape=sumEllipse;perimeter=ellipsePerimeter;whiteSpace=wrap;html=1;backgroundOutline=1;" vertex="1" parent="1">
          <mxGeometry x="400" y="377.5" width="10" height="10" as="geometry" />
        </mxCell>
        <mxCell id="1rM6C2h5TiVr_Z7WdG6Z-77" value="" style="shape=sumEllipse;perimeter=ellipsePerimeter;whiteSpace=wrap;html=1;backgroundOutline=1;" vertex="1" parent="1">
          <mxGeometry x="410" y="402.5" width="10" height="10" as="geometry" />
        </mxCell>
        <mxCell id="1rM6C2h5TiVr_Z7WdG6Z-78" value="" style="shape=sumEllipse;perimeter=ellipsePerimeter;whiteSpace=wrap;html=1;backgroundOutline=1;" vertex="1" parent="1">
          <mxGeometry x="430" y="377.5" width="10" height="10" as="geometry" />
        </mxCell>
        <mxCell id="1rM6C2h5TiVr_Z7WdG6Z-79" value="" style="shape=sumEllipse;perimeter=ellipsePerimeter;whiteSpace=wrap;html=1;backgroundOutline=1;" vertex="1" parent="1">
          <mxGeometry x="440" y="402.5" width="10" height="10" as="geometry" />
        </mxCell>
        <mxCell id="1rM6C2h5TiVr_Z7WdG6Z-86" value="" style="shape=sumEllipse;perimeter=ellipsePerimeter;whiteSpace=wrap;html=1;backgroundOutline=1;" vertex="1" parent="1">
          <mxGeometry x="550" y="377.5" width="10" height="10" as="geometry" />
        </mxCell>
        <mxCell id="1rM6C2h5TiVr_Z7WdG6Z-87" value="" style="shape=sumEllipse;perimeter=ellipsePerimeter;whiteSpace=wrap;html=1;backgroundOutline=1;" vertex="1" parent="1">
          <mxGeometry x="560" y="402.5" width="10" height="10" as="geometry" />
        </mxCell>
        <mxCell id="1rM6C2h5TiVr_Z7WdG6Z-88" value="" style="shape=sumEllipse;perimeter=ellipsePerimeter;whiteSpace=wrap;html=1;backgroundOutline=1;" vertex="1" parent="1">
          <mxGeometry x="577.2" y="375" width="10" height="10" as="geometry" />
        </mxCell>
        <mxCell id="1rM6C2h5TiVr_Z7WdG6Z-89" value="" style="shape=sumEllipse;perimeter=ellipsePerimeter;whiteSpace=wrap;html=1;backgroundOutline=1;" vertex="1" parent="1">
          <mxGeometry x="587.2" y="400" width="10" height="10" as="geometry" />
        </mxCell>
        <mxCell id="1rM6C2h5TiVr_Z7WdG6Z-90" value="" style="shape=sumEllipse;perimeter=ellipsePerimeter;whiteSpace=wrap;html=1;backgroundOutline=1;" vertex="1" parent="1">
          <mxGeometry x="610" y="372.5" width="10" height="10" as="geometry" />
        </mxCell>
        <mxCell id="1rM6C2h5TiVr_Z7WdG6Z-91" value="" style="shape=sumEllipse;perimeter=ellipsePerimeter;whiteSpace=wrap;html=1;backgroundOutline=1;" vertex="1" parent="1">
          <mxGeometry x="620" y="397.5" width="10" height="10" as="geometry" />
        </mxCell>
        <mxCell id="1rM6C2h5TiVr_Z7WdG6Z-92" value="" style="shape=sumEllipse;perimeter=ellipsePerimeter;whiteSpace=wrap;html=1;backgroundOutline=1;" vertex="1" parent="1">
          <mxGeometry x="410" y="387.5" width="10" height="10" as="geometry" />
        </mxCell>
        <mxCell id="1rM6C2h5TiVr_Z7WdG6Z-93" value="" style="shape=sumEllipse;perimeter=ellipsePerimeter;whiteSpace=wrap;html=1;backgroundOutline=1;" vertex="1" parent="1">
          <mxGeometry x="420" y="412.5" width="10" height="10" as="geometry" />
        </mxCell>
        <mxCell id="1rM6C2h5TiVr_Z7WdG6Z-94" value="" style="shape=sumEllipse;perimeter=ellipsePerimeter;whiteSpace=wrap;html=1;backgroundOutline=1;" vertex="1" parent="1">
          <mxGeometry x="440" y="387.5" width="10" height="10" as="geometry" />
        </mxCell>
        <mxCell id="1rM6C2h5TiVr_Z7WdG6Z-101" value="" style="shape=sumEllipse;perimeter=ellipsePerimeter;whiteSpace=wrap;html=1;backgroundOutline=1;" vertex="1" parent="1">
          <mxGeometry x="540" y="412.5" width="10" height="10" as="geometry" />
        </mxCell>
        <mxCell id="1rM6C2h5TiVr_Z7WdG6Z-102" value="" style="shape=sumEllipse;perimeter=ellipsePerimeter;whiteSpace=wrap;html=1;backgroundOutline=1;" vertex="1" parent="1">
          <mxGeometry x="560" y="387.5" width="10" height="10" as="geometry" />
        </mxCell>
        <mxCell id="1rM6C2h5TiVr_Z7WdG6Z-103" value="" style="shape=sumEllipse;perimeter=ellipsePerimeter;whiteSpace=wrap;html=1;backgroundOutline=1;" vertex="1" parent="1">
          <mxGeometry x="570" y="412.5" width="10" height="10" as="geometry" />
        </mxCell>
        <mxCell id="1rM6C2h5TiVr_Z7WdG6Z-104" value="" style="shape=sumEllipse;perimeter=ellipsePerimeter;whiteSpace=wrap;html=1;backgroundOutline=1;" vertex="1" parent="1">
          <mxGeometry x="587.2" y="385" width="10" height="10" as="geometry" />
        </mxCell>
        <mxCell id="1rM6C2h5TiVr_Z7WdG6Z-105" value="" style="shape=sumEllipse;perimeter=ellipsePerimeter;whiteSpace=wrap;html=1;backgroundOutline=1;" vertex="1" parent="1">
          <mxGeometry x="597.2" y="410" width="10" height="10" as="geometry" />
        </mxCell>
        <mxCell id="1rM6C2h5TiVr_Z7WdG6Z-106" value="" style="shape=sumEllipse;perimeter=ellipsePerimeter;whiteSpace=wrap;html=1;backgroundOutline=1;" vertex="1" parent="1">
          <mxGeometry x="620" y="382.5" width="10" height="10" as="geometry" />
        </mxCell>
        <mxCell id="1rM6C2h5TiVr_Z7WdG6Z-107" value="" style="shape=sumEllipse;perimeter=ellipsePerimeter;whiteSpace=wrap;html=1;backgroundOutline=1;" vertex="1" parent="1">
          <mxGeometry x="630" y="407.5" width="10" height="10" as="geometry" />
        </mxCell>
        <mxCell id="1rM6C2h5TiVr_Z7WdG6Z-108" value="" style="shape=sumEllipse;perimeter=ellipsePerimeter;whiteSpace=wrap;html=1;backgroundOutline=1;" vertex="1" parent="1">
          <mxGeometry x="410" y="387.5" width="10" height="10" as="geometry" />
        </mxCell>
        <mxCell id="1rM6C2h5TiVr_Z7WdG6Z-109" value="" style="shape=sumEllipse;perimeter=ellipsePerimeter;whiteSpace=wrap;html=1;backgroundOutline=1;" vertex="1" parent="1">
          <mxGeometry x="420" y="412.5" width="10" height="10" as="geometry" />
        </mxCell>
        <mxCell id="1rM6C2h5TiVr_Z7WdG6Z-110" value="" style="shape=sumEllipse;perimeter=ellipsePerimeter;whiteSpace=wrap;html=1;backgroundOutline=1;" vertex="1" parent="1">
          <mxGeometry x="440" y="387.5" width="10" height="10" as="geometry" />
        </mxCell>
        <mxCell id="1rM6C2h5TiVr_Z7WdG6Z-117" value="" style="shape=sumEllipse;perimeter=ellipsePerimeter;whiteSpace=wrap;html=1;backgroundOutline=1;" vertex="1" parent="1">
          <mxGeometry x="540" y="412.5" width="10" height="10" as="geometry" />
        </mxCell>
        <mxCell id="1rM6C2h5TiVr_Z7WdG6Z-118" value="" style="shape=sumEllipse;perimeter=ellipsePerimeter;whiteSpace=wrap;html=1;backgroundOutline=1;" vertex="1" parent="1">
          <mxGeometry x="560" y="387.5" width="10" height="10" as="geometry" />
        </mxCell>
        <mxCell id="1rM6C2h5TiVr_Z7WdG6Z-119" value="" style="shape=sumEllipse;perimeter=ellipsePerimeter;whiteSpace=wrap;html=1;backgroundOutline=1;" vertex="1" parent="1">
          <mxGeometry x="570" y="412.5" width="10" height="10" as="geometry" />
        </mxCell>
        <mxCell id="1rM6C2h5TiVr_Z7WdG6Z-120" value="" style="shape=sumEllipse;perimeter=ellipsePerimeter;whiteSpace=wrap;html=1;backgroundOutline=1;" vertex="1" parent="1">
          <mxGeometry x="587.2" y="385" width="10" height="10" as="geometry" />
        </mxCell>
        <mxCell id="1rM6C2h5TiVr_Z7WdG6Z-121" value="" style="shape=sumEllipse;perimeter=ellipsePerimeter;whiteSpace=wrap;html=1;backgroundOutline=1;" vertex="1" parent="1">
          <mxGeometry x="597.2" y="410" width="10" height="10" as="geometry" />
        </mxCell>
        <mxCell id="1rM6C2h5TiVr_Z7WdG6Z-122" value="" style="shape=sumEllipse;perimeter=ellipsePerimeter;whiteSpace=wrap;html=1;backgroundOutline=1;" vertex="1" parent="1">
          <mxGeometry x="620" y="382.5" width="10" height="10" as="geometry" />
        </mxCell>
        <mxCell id="1rM6C2h5TiVr_Z7WdG6Z-123" value="" style="shape=sumEllipse;perimeter=ellipsePerimeter;whiteSpace=wrap;html=1;backgroundOutline=1;" vertex="1" parent="1">
          <mxGeometry x="630" y="407.5" width="10" height="10" as="geometry" />
        </mxCell>
        <mxCell id="1rM6C2h5TiVr_Z7WdG6Z-124" value="" style="shape=sumEllipse;perimeter=ellipsePerimeter;whiteSpace=wrap;html=1;backgroundOutline=1;" vertex="1" parent="1">
          <mxGeometry x="420" y="397.5" width="10" height="10" as="geometry" />
        </mxCell>
        <mxCell id="1rM6C2h5TiVr_Z7WdG6Z-125" value="" style="shape=sumEllipse;perimeter=ellipsePerimeter;whiteSpace=wrap;html=1;backgroundOutline=1;" vertex="1" parent="1">
          <mxGeometry x="430" y="422.5" width="10" height="10" as="geometry" />
        </mxCell>
        <mxCell id="1rM6C2h5TiVr_Z7WdG6Z-132" value="" style="shape=sumEllipse;perimeter=ellipsePerimeter;whiteSpace=wrap;html=1;backgroundOutline=1;" vertex="1" parent="1">
          <mxGeometry x="540" y="397.5" width="10" height="10" as="geometry" />
        </mxCell>
        <mxCell id="1rM6C2h5TiVr_Z7WdG6Z-133" value="" style="shape=sumEllipse;perimeter=ellipsePerimeter;whiteSpace=wrap;html=1;backgroundOutline=1;" vertex="1" parent="1">
          <mxGeometry x="550" y="422.5" width="10" height="10" as="geometry" />
        </mxCell>
        <mxCell id="1rM6C2h5TiVr_Z7WdG6Z-134" value="" style="shape=sumEllipse;perimeter=ellipsePerimeter;whiteSpace=wrap;html=1;backgroundOutline=1;" vertex="1" parent="1">
          <mxGeometry x="570" y="397.5" width="10" height="10" as="geometry" />
        </mxCell>
        <mxCell id="1rM6C2h5TiVr_Z7WdG6Z-135" value="" style="shape=sumEllipse;perimeter=ellipsePerimeter;whiteSpace=wrap;html=1;backgroundOutline=1;" vertex="1" parent="1">
          <mxGeometry x="580" y="422.5" width="10" height="10" as="geometry" />
        </mxCell>
        <mxCell id="1rM6C2h5TiVr_Z7WdG6Z-136" value="" style="shape=sumEllipse;perimeter=ellipsePerimeter;whiteSpace=wrap;html=1;backgroundOutline=1;" vertex="1" parent="1">
          <mxGeometry x="597.2" y="395" width="10" height="10" as="geometry" />
        </mxCell>
        <mxCell id="1rM6C2h5TiVr_Z7WdG6Z-137" value="" style="shape=sumEllipse;perimeter=ellipsePerimeter;whiteSpace=wrap;html=1;backgroundOutline=1;" vertex="1" parent="1">
          <mxGeometry x="607.2" y="420" width="10" height="10" as="geometry" />
        </mxCell>
        <mxCell id="1rM6C2h5TiVr_Z7WdG6Z-138" value="" style="shape=sumEllipse;perimeter=ellipsePerimeter;whiteSpace=wrap;html=1;backgroundOutline=1;" vertex="1" parent="1">
          <mxGeometry x="630" y="392.5" width="10" height="10" as="geometry" />
        </mxCell>
        <mxCell id="1rM6C2h5TiVr_Z7WdG6Z-139" value="" style="shape=sumEllipse;perimeter=ellipsePerimeter;whiteSpace=wrap;html=1;backgroundOutline=1;" vertex="1" parent="1">
          <mxGeometry x="640" y="417.5" width="10" height="10" as="geometry" />
        </mxCell>
        <mxCell id="1rM6C2h5TiVr_Z7WdG6Z-140" value="" style="shape=sumEllipse;perimeter=ellipsePerimeter;whiteSpace=wrap;html=1;backgroundOutline=1;" vertex="1" parent="1">
          <mxGeometry x="650" y="382.5" width="10" height="10" as="geometry" />
        </mxCell>
        <mxCell id="1rM6C2h5TiVr_Z7WdG6Z-141" value="" style="shape=sumEllipse;perimeter=ellipsePerimeter;whiteSpace=wrap;html=1;backgroundOutline=1;" vertex="1" parent="1">
          <mxGeometry x="660" y="407.5" width="10" height="10" as="geometry" />
        </mxCell>
        <mxCell id="1rM6C2h5TiVr_Z7WdG6Z-142" value="" style="shape=sumEllipse;perimeter=ellipsePerimeter;whiteSpace=wrap;html=1;backgroundOutline=1;" vertex="1" parent="1">
          <mxGeometry x="680" y="382.5" width="10" height="10" as="geometry" />
        </mxCell>
        <mxCell id="1rM6C2h5TiVr_Z7WdG6Z-143" value="" style="shape=sumEllipse;perimeter=ellipsePerimeter;whiteSpace=wrap;html=1;backgroundOutline=1;" vertex="1" parent="1">
          <mxGeometry x="690" y="407.5" width="10" height="10" as="geometry" />
        </mxCell>
        <mxCell id="1rM6C2h5TiVr_Z7WdG6Z-144" value="" style="shape=sumEllipse;perimeter=ellipsePerimeter;whiteSpace=wrap;html=1;backgroundOutline=1;" vertex="1" parent="1">
          <mxGeometry x="710" y="380" width="10" height="10" as="geometry" />
        </mxCell>
        <mxCell id="1rM6C2h5TiVr_Z7WdG6Z-145" value="" style="shape=sumEllipse;perimeter=ellipsePerimeter;whiteSpace=wrap;html=1;backgroundOutline=1;" vertex="1" parent="1">
          <mxGeometry x="720" y="405" width="10" height="10" as="geometry" />
        </mxCell>
        <mxCell id="1rM6C2h5TiVr_Z7WdG6Z-146" value="" style="shape=sumEllipse;perimeter=ellipsePerimeter;whiteSpace=wrap;html=1;backgroundOutline=1;" vertex="1" parent="1">
          <mxGeometry x="740" y="382.5" width="10" height="10" as="geometry" />
        </mxCell>
        <mxCell id="1rM6C2h5TiVr_Z7WdG6Z-147" value="" style="shape=sumEllipse;perimeter=ellipsePerimeter;whiteSpace=wrap;html=1;backgroundOutline=1;" vertex="1" parent="1">
          <mxGeometry x="750" y="407.5" width="10" height="10" as="geometry" />
        </mxCell>
        <mxCell id="1rM6C2h5TiVr_Z7WdG6Z-148" value="" style="shape=sumEllipse;perimeter=ellipsePerimeter;whiteSpace=wrap;html=1;backgroundOutline=1;" vertex="1" parent="1">
          <mxGeometry x="770" y="382.5" width="10" height="10" as="geometry" />
        </mxCell>
        <mxCell id="1rM6C2h5TiVr_Z7WdG6Z-149" value="" style="shape=sumEllipse;perimeter=ellipsePerimeter;whiteSpace=wrap;html=1;backgroundOutline=1;" vertex="1" parent="1">
          <mxGeometry x="780" y="407.5" width="10" height="10" as="geometry" />
        </mxCell>
        <mxCell id="1rM6C2h5TiVr_Z7WdG6Z-150" value="" style="shape=sumEllipse;perimeter=ellipsePerimeter;whiteSpace=wrap;html=1;backgroundOutline=1;" vertex="1" parent="1">
          <mxGeometry x="800" y="382.5" width="10" height="10" as="geometry" />
        </mxCell>
        <mxCell id="1rM6C2h5TiVr_Z7WdG6Z-151" value="" style="shape=sumEllipse;perimeter=ellipsePerimeter;whiteSpace=wrap;html=1;backgroundOutline=1;" vertex="1" parent="1">
          <mxGeometry x="810" y="407.5" width="10" height="10" as="geometry" />
        </mxCell>
        <mxCell id="1rM6C2h5TiVr_Z7WdG6Z-152" value="" style="shape=sumEllipse;perimeter=ellipsePerimeter;whiteSpace=wrap;html=1;backgroundOutline=1;" vertex="1" parent="1">
          <mxGeometry x="827.2" y="380" width="10" height="10" as="geometry" />
        </mxCell>
        <mxCell id="1rM6C2h5TiVr_Z7WdG6Z-153" value="" style="shape=sumEllipse;perimeter=ellipsePerimeter;whiteSpace=wrap;html=1;backgroundOutline=1;" vertex="1" parent="1">
          <mxGeometry x="837.2" y="405" width="10" height="10" as="geometry" />
        </mxCell>
        <mxCell id="1rM6C2h5TiVr_Z7WdG6Z-154" value="" style="shape=sumEllipse;perimeter=ellipsePerimeter;whiteSpace=wrap;html=1;backgroundOutline=1;" vertex="1" parent="1">
          <mxGeometry x="860" y="377.5" width="10" height="10" as="geometry" />
        </mxCell>
        <mxCell id="1rM6C2h5TiVr_Z7WdG6Z-155" value="" style="shape=sumEllipse;perimeter=ellipsePerimeter;whiteSpace=wrap;html=1;backgroundOutline=1;" vertex="1" parent="1">
          <mxGeometry x="870" y="402.5" width="10" height="10" as="geometry" />
        </mxCell>
        <mxCell id="1rM6C2h5TiVr_Z7WdG6Z-156" value="" style="shape=sumEllipse;perimeter=ellipsePerimeter;whiteSpace=wrap;html=1;backgroundOutline=1;" vertex="1" parent="1">
          <mxGeometry x="660" y="392.5" width="10" height="10" as="geometry" />
        </mxCell>
        <mxCell id="1rM6C2h5TiVr_Z7WdG6Z-157" value="" style="shape=sumEllipse;perimeter=ellipsePerimeter;whiteSpace=wrap;html=1;backgroundOutline=1;" vertex="1" parent="1">
          <mxGeometry x="670" y="417.5" width="10" height="10" as="geometry" />
        </mxCell>
        <mxCell id="1rM6C2h5TiVr_Z7WdG6Z-158" value="" style="shape=sumEllipse;perimeter=ellipsePerimeter;whiteSpace=wrap;html=1;backgroundOutline=1;" vertex="1" parent="1">
          <mxGeometry x="690" y="392.5" width="10" height="10" as="geometry" />
        </mxCell>
        <mxCell id="1rM6C2h5TiVr_Z7WdG6Z-159" value="" style="shape=sumEllipse;perimeter=ellipsePerimeter;whiteSpace=wrap;html=1;backgroundOutline=1;" vertex="1" parent="1">
          <mxGeometry x="700" y="417.5" width="10" height="10" as="geometry" />
        </mxCell>
        <mxCell id="1rM6C2h5TiVr_Z7WdG6Z-160" value="" style="shape=sumEllipse;perimeter=ellipsePerimeter;whiteSpace=wrap;html=1;backgroundOutline=1;" vertex="1" parent="1">
          <mxGeometry x="720" y="390" width="10" height="10" as="geometry" />
        </mxCell>
        <mxCell id="1rM6C2h5TiVr_Z7WdG6Z-161" value="" style="shape=sumEllipse;perimeter=ellipsePerimeter;whiteSpace=wrap;html=1;backgroundOutline=1;" vertex="1" parent="1">
          <mxGeometry x="730" y="415" width="10" height="10" as="geometry" />
        </mxCell>
        <mxCell id="1rM6C2h5TiVr_Z7WdG6Z-162" value="" style="shape=sumEllipse;perimeter=ellipsePerimeter;whiteSpace=wrap;html=1;backgroundOutline=1;" vertex="1" parent="1">
          <mxGeometry x="750" y="392.5" width="10" height="10" as="geometry" />
        </mxCell>
        <mxCell id="1rM6C2h5TiVr_Z7WdG6Z-163" value="" style="shape=sumEllipse;perimeter=ellipsePerimeter;whiteSpace=wrap;html=1;backgroundOutline=1;" vertex="1" parent="1">
          <mxGeometry x="760" y="417.5" width="10" height="10" as="geometry" />
        </mxCell>
        <mxCell id="1rM6C2h5TiVr_Z7WdG6Z-164" value="" style="shape=sumEllipse;perimeter=ellipsePerimeter;whiteSpace=wrap;html=1;backgroundOutline=1;" vertex="1" parent="1">
          <mxGeometry x="780" y="392.5" width="10" height="10" as="geometry" />
        </mxCell>
        <mxCell id="1rM6C2h5TiVr_Z7WdG6Z-165" value="" style="shape=sumEllipse;perimeter=ellipsePerimeter;whiteSpace=wrap;html=1;backgroundOutline=1;" vertex="1" parent="1">
          <mxGeometry x="790" y="417.5" width="10" height="10" as="geometry" />
        </mxCell>
        <mxCell id="1rM6C2h5TiVr_Z7WdG6Z-166" value="" style="shape=sumEllipse;perimeter=ellipsePerimeter;whiteSpace=wrap;html=1;backgroundOutline=1;" vertex="1" parent="1">
          <mxGeometry x="810" y="392.5" width="10" height="10" as="geometry" />
        </mxCell>
        <mxCell id="1rM6C2h5TiVr_Z7WdG6Z-167" value="" style="shape=sumEllipse;perimeter=ellipsePerimeter;whiteSpace=wrap;html=1;backgroundOutline=1;" vertex="1" parent="1">
          <mxGeometry x="820" y="417.5" width="10" height="10" as="geometry" />
        </mxCell>
        <mxCell id="1rM6C2h5TiVr_Z7WdG6Z-168" value="" style="shape=sumEllipse;perimeter=ellipsePerimeter;whiteSpace=wrap;html=1;backgroundOutline=1;" vertex="1" parent="1">
          <mxGeometry x="837.2" y="390" width="10" height="10" as="geometry" />
        </mxCell>
        <mxCell id="1rM6C2h5TiVr_Z7WdG6Z-169" value="" style="shape=sumEllipse;perimeter=ellipsePerimeter;whiteSpace=wrap;html=1;backgroundOutline=1;" vertex="1" parent="1">
          <mxGeometry x="847.2" y="415" width="10" height="10" as="geometry" />
        </mxCell>
        <mxCell id="1rM6C2h5TiVr_Z7WdG6Z-170" value="" style="shape=sumEllipse;perimeter=ellipsePerimeter;whiteSpace=wrap;html=1;backgroundOutline=1;" vertex="1" parent="1">
          <mxGeometry x="870" y="387.5" width="10" height="10" as="geometry" />
        </mxCell>
        <mxCell id="1rM6C2h5TiVr_Z7WdG6Z-171" value="" style="shape=sumEllipse;perimeter=ellipsePerimeter;whiteSpace=wrap;html=1;backgroundOutline=1;" vertex="1" parent="1">
          <mxGeometry x="880" y="412.5" width="10" height="10" as="geometry" />
        </mxCell>
        <mxCell id="1rM6C2h5TiVr_Z7WdG6Z-172" value="" style="shape=sumEllipse;perimeter=ellipsePerimeter;whiteSpace=wrap;html=1;backgroundOutline=1;" vertex="1" parent="1">
          <mxGeometry x="660" y="392.5" width="10" height="10" as="geometry" />
        </mxCell>
        <mxCell id="1rM6C2h5TiVr_Z7WdG6Z-173" value="" style="shape=sumEllipse;perimeter=ellipsePerimeter;whiteSpace=wrap;html=1;backgroundOutline=1;" vertex="1" parent="1">
          <mxGeometry x="670" y="417.5" width="10" height="10" as="geometry" />
        </mxCell>
        <mxCell id="1rM6C2h5TiVr_Z7WdG6Z-174" value="" style="shape=sumEllipse;perimeter=ellipsePerimeter;whiteSpace=wrap;html=1;backgroundOutline=1;" vertex="1" parent="1">
          <mxGeometry x="690" y="392.5" width="10" height="10" as="geometry" />
        </mxCell>
        <mxCell id="1rM6C2h5TiVr_Z7WdG6Z-175" value="" style="shape=sumEllipse;perimeter=ellipsePerimeter;whiteSpace=wrap;html=1;backgroundOutline=1;" vertex="1" parent="1">
          <mxGeometry x="700" y="417.5" width="10" height="10" as="geometry" />
        </mxCell>
        <mxCell id="1rM6C2h5TiVr_Z7WdG6Z-176" value="" style="shape=sumEllipse;perimeter=ellipsePerimeter;whiteSpace=wrap;html=1;backgroundOutline=1;" vertex="1" parent="1">
          <mxGeometry x="720" y="390" width="10" height="10" as="geometry" />
        </mxCell>
        <mxCell id="1rM6C2h5TiVr_Z7WdG6Z-177" value="" style="shape=sumEllipse;perimeter=ellipsePerimeter;whiteSpace=wrap;html=1;backgroundOutline=1;" vertex="1" parent="1">
          <mxGeometry x="730" y="415" width="10" height="10" as="geometry" />
        </mxCell>
        <mxCell id="1rM6C2h5TiVr_Z7WdG6Z-178" value="" style="shape=sumEllipse;perimeter=ellipsePerimeter;whiteSpace=wrap;html=1;backgroundOutline=1;" vertex="1" parent="1">
          <mxGeometry x="750" y="392.5" width="10" height="10" as="geometry" />
        </mxCell>
        <mxCell id="1rM6C2h5TiVr_Z7WdG6Z-179" value="" style="shape=sumEllipse;perimeter=ellipsePerimeter;whiteSpace=wrap;html=1;backgroundOutline=1;" vertex="1" parent="1">
          <mxGeometry x="760" y="417.5" width="10" height="10" as="geometry" />
        </mxCell>
        <mxCell id="1rM6C2h5TiVr_Z7WdG6Z-180" value="" style="shape=sumEllipse;perimeter=ellipsePerimeter;whiteSpace=wrap;html=1;backgroundOutline=1;" vertex="1" parent="1">
          <mxGeometry x="780" y="392.5" width="10" height="10" as="geometry" />
        </mxCell>
        <mxCell id="1rM6C2h5TiVr_Z7WdG6Z-181" value="" style="shape=sumEllipse;perimeter=ellipsePerimeter;whiteSpace=wrap;html=1;backgroundOutline=1;" vertex="1" parent="1">
          <mxGeometry x="790" y="417.5" width="10" height="10" as="geometry" />
        </mxCell>
        <mxCell id="1rM6C2h5TiVr_Z7WdG6Z-182" value="" style="shape=sumEllipse;perimeter=ellipsePerimeter;whiteSpace=wrap;html=1;backgroundOutline=1;" vertex="1" parent="1">
          <mxGeometry x="810" y="392.5" width="10" height="10" as="geometry" />
        </mxCell>
        <mxCell id="1rM6C2h5TiVr_Z7WdG6Z-183" value="" style="shape=sumEllipse;perimeter=ellipsePerimeter;whiteSpace=wrap;html=1;backgroundOutline=1;" vertex="1" parent="1">
          <mxGeometry x="820" y="417.5" width="10" height="10" as="geometry" />
        </mxCell>
        <mxCell id="1rM6C2h5TiVr_Z7WdG6Z-184" value="" style="shape=sumEllipse;perimeter=ellipsePerimeter;whiteSpace=wrap;html=1;backgroundOutline=1;" vertex="1" parent="1">
          <mxGeometry x="837.2" y="390" width="10" height="10" as="geometry" />
        </mxCell>
        <mxCell id="1rM6C2h5TiVr_Z7WdG6Z-185" value="" style="shape=sumEllipse;perimeter=ellipsePerimeter;whiteSpace=wrap;html=1;backgroundOutline=1;" vertex="1" parent="1">
          <mxGeometry x="847.2" y="415" width="10" height="10" as="geometry" />
        </mxCell>
        <mxCell id="1rM6C2h5TiVr_Z7WdG6Z-186" value="" style="shape=sumEllipse;perimeter=ellipsePerimeter;whiteSpace=wrap;html=1;backgroundOutline=1;" vertex="1" parent="1">
          <mxGeometry x="870" y="387.5" width="10" height="10" as="geometry" />
        </mxCell>
        <mxCell id="1rM6C2h5TiVr_Z7WdG6Z-187" value="" style="shape=sumEllipse;perimeter=ellipsePerimeter;whiteSpace=wrap;html=1;backgroundOutline=1;" vertex="1" parent="1">
          <mxGeometry x="880" y="412.5" width="10" height="10" as="geometry" />
        </mxCell>
        <mxCell id="1rM6C2h5TiVr_Z7WdG6Z-188" value="" style="shape=sumEllipse;perimeter=ellipsePerimeter;whiteSpace=wrap;html=1;backgroundOutline=1;" vertex="1" parent="1">
          <mxGeometry x="670" y="402.5" width="10" height="10" as="geometry" />
        </mxCell>
        <mxCell id="1rM6C2h5TiVr_Z7WdG6Z-189" value="" style="shape=sumEllipse;perimeter=ellipsePerimeter;whiteSpace=wrap;html=1;backgroundOutline=1;" vertex="1" parent="1">
          <mxGeometry x="680" y="427.5" width="10" height="10" as="geometry" />
        </mxCell>
        <mxCell id="1rM6C2h5TiVr_Z7WdG6Z-190" value="" style="shape=sumEllipse;perimeter=ellipsePerimeter;whiteSpace=wrap;html=1;backgroundOutline=1;" vertex="1" parent="1">
          <mxGeometry x="700" y="402.5" width="10" height="10" as="geometry" />
        </mxCell>
        <mxCell id="1rM6C2h5TiVr_Z7WdG6Z-191" value="" style="shape=sumEllipse;perimeter=ellipsePerimeter;whiteSpace=wrap;html=1;backgroundOutline=1;" vertex="1" parent="1">
          <mxGeometry x="710" y="427.5" width="10" height="10" as="geometry" />
        </mxCell>
        <mxCell id="1rM6C2h5TiVr_Z7WdG6Z-192" value="" style="shape=sumEllipse;perimeter=ellipsePerimeter;whiteSpace=wrap;html=1;backgroundOutline=1;" vertex="1" parent="1">
          <mxGeometry x="730" y="400" width="10" height="10" as="geometry" />
        </mxCell>
        <mxCell id="1rM6C2h5TiVr_Z7WdG6Z-193" value="" style="shape=sumEllipse;perimeter=ellipsePerimeter;whiteSpace=wrap;html=1;backgroundOutline=1;" vertex="1" parent="1">
          <mxGeometry x="740" y="425" width="10" height="10" as="geometry" />
        </mxCell>
        <mxCell id="1rM6C2h5TiVr_Z7WdG6Z-194" value="" style="shape=sumEllipse;perimeter=ellipsePerimeter;whiteSpace=wrap;html=1;backgroundOutline=1;" vertex="1" parent="1">
          <mxGeometry x="760" y="402.5" width="10" height="10" as="geometry" />
        </mxCell>
        <mxCell id="1rM6C2h5TiVr_Z7WdG6Z-195" value="" style="shape=sumEllipse;perimeter=ellipsePerimeter;whiteSpace=wrap;html=1;backgroundOutline=1;" vertex="1" parent="1">
          <mxGeometry x="770" y="427.5" width="10" height="10" as="geometry" />
        </mxCell>
        <mxCell id="1rM6C2h5TiVr_Z7WdG6Z-196" value="" style="shape=sumEllipse;perimeter=ellipsePerimeter;whiteSpace=wrap;html=1;backgroundOutline=1;" vertex="1" parent="1">
          <mxGeometry x="790" y="402.5" width="10" height="10" as="geometry" />
        </mxCell>
        <mxCell id="1rM6C2h5TiVr_Z7WdG6Z-197" value="" style="shape=sumEllipse;perimeter=ellipsePerimeter;whiteSpace=wrap;html=1;backgroundOutline=1;" vertex="1" parent="1">
          <mxGeometry x="800" y="427.5" width="10" height="10" as="geometry" />
        </mxCell>
        <mxCell id="1rM6C2h5TiVr_Z7WdG6Z-198" value="" style="shape=sumEllipse;perimeter=ellipsePerimeter;whiteSpace=wrap;html=1;backgroundOutline=1;" vertex="1" parent="1">
          <mxGeometry x="820" y="402.5" width="10" height="10" as="geometry" />
        </mxCell>
        <mxCell id="1rM6C2h5TiVr_Z7WdG6Z-199" value="" style="shape=sumEllipse;perimeter=ellipsePerimeter;whiteSpace=wrap;html=1;backgroundOutline=1;" vertex="1" parent="1">
          <mxGeometry x="830" y="427.5" width="10" height="10" as="geometry" />
        </mxCell>
        <mxCell id="1rM6C2h5TiVr_Z7WdG6Z-200" value="" style="shape=sumEllipse;perimeter=ellipsePerimeter;whiteSpace=wrap;html=1;backgroundOutline=1;" vertex="1" parent="1">
          <mxGeometry x="847.2" y="400" width="10" height="10" as="geometry" />
        </mxCell>
        <mxCell id="1rM6C2h5TiVr_Z7WdG6Z-201" value="" style="shape=sumEllipse;perimeter=ellipsePerimeter;whiteSpace=wrap;html=1;backgroundOutline=1;" vertex="1" parent="1">
          <mxGeometry x="857.2" y="425" width="10" height="10" as="geometry" />
        </mxCell>
        <mxCell id="1rM6C2h5TiVr_Z7WdG6Z-202" value="" style="shape=sumEllipse;perimeter=ellipsePerimeter;whiteSpace=wrap;html=1;backgroundOutline=1;" vertex="1" parent="1">
          <mxGeometry x="880" y="397.5" width="10" height="10" as="geometry" />
        </mxCell>
        <mxCell id="1rM6C2h5TiVr_Z7WdG6Z-203" value="" style="shape=sumEllipse;perimeter=ellipsePerimeter;whiteSpace=wrap;html=1;backgroundOutline=1;" vertex="1" parent="1">
          <mxGeometry x="890" y="422.5" width="10" height="10" as="geometry" />
        </mxCell>
        <mxCell id="1rM6C2h5TiVr_Z7WdG6Z-204" value="盲区" style="rounded=1;whiteSpace=wrap;html=1;" vertex="1" parent="1">
          <mxGeometry x="450" y="282.7" width="100" height="50" as="geometry" />
        </mxCell>
        <mxCell id="1rM6C2h5TiVr_Z7WdG6Z-205" value="条件一:一个相机下，同一实时id对应的是同一个人" style="text;html=1;strokeColor=none;fillColor=none;align=left;verticalAlign=middle;whiteSpace=wrap;rounded=0;" vertex="1" parent="1">
          <mxGeometry x="30" y="510" width="430" height="30" as="geometry" />
        </mxCell>
        <mxCell id="1rM6C2h5TiVr_Z7WdG6Z-206" value="" style="shape=requiredInterface;html=1;verticalLabelPosition=bottom;sketch=0;rotation=90;" vertex="1" parent="1">
          <mxGeometry x="490" y="425" width="20" height="75" as="geometry" />
        </mxCell>
        <mxCell id="1rM6C2h5TiVr_Z7WdG6Z-207" value="补点" style="text;html=1;strokeColor=none;fillColor=none;align=center;verticalAlign=middle;whiteSpace=wrap;rounded=0;" vertex="1" parent="1">
          <mxGeometry x="470" y="447.5" width="60" height="30" as="geometry" />
        </mxCell>
        <mxCell id="1rM6C2h5TiVr_Z7WdG6Z-227" value="" style="rounded=1;absoluteArcSize=1;html=1;arcSize=10;" vertex="1" parent="1">
          <mxGeometry x="29.700000000000003" y="585" width="625" height="90" as="geometry" />
        </mxCell>
        <mxCell id="1rM6C2h5TiVr_Z7WdG6Z-228" value="&lt;span style=&quot;text-align: left;&quot;&gt;优化一：一个相机下，同一实时id中如果有识别到人脸，则将相同实时id对应的人员信息更新为识别到人脸的人员信息。&lt;/span&gt;" style="html=1;shape=mxgraph.er.anchor;whiteSpace=wrap;" vertex="1" parent="1rM6C2h5TiVr_Z7WdG6Z-227">
          <mxGeometry width="410" height="90" as="geometry" />
        </mxCell>
        <mxCell id="1rM6C2h5TiVr_Z7WdG6Z-229" value="相对准确" style="rounded=1;absoluteArcSize=1;html=1;arcSize=10;whiteSpace=wrap;points=[];strokeColor=inherit;fillColor=inherit;" vertex="1" parent="1rM6C2h5TiVr_Z7WdG6Z-227">
          <mxGeometry x="450" y="4.5" width="143.75" height="81" as="geometry" />
        </mxCell>
        <mxCell id="1rM6C2h5TiVr_Z7WdG6Z-230" value="" style="rounded=1;absoluteArcSize=1;html=1;arcSize=10;" vertex="1" parent="1">
          <mxGeometry x="30.000000000000004" y="710" width="625" height="90" as="geometry" />
        </mxCell>
        <mxCell id="1rM6C2h5TiVr_Z7WdG6Z-231" value="&lt;span style=&quot;text-align: left;&quot;&gt;优化二：第一个相机中如果没有检测到人脸，则查询工单中关联的人员信息。&lt;/span&gt;" style="html=1;shape=mxgraph.er.anchor;whiteSpace=wrap;" vertex="1" parent="1rM6C2h5TiVr_Z7WdG6Z-230">
          <mxGeometry width="410" height="90" as="geometry" />
        </mxCell>
        <mxCell id="1rM6C2h5TiVr_Z7WdG6Z-232" value="一般，可能出现进去的人员并一定是工单关联人员，这样整个点对应的人员信息都是错误的。" style="rounded=1;absoluteArcSize=1;html=1;arcSize=10;whiteSpace=wrap;points=[];strokeColor=inherit;fillColor=inherit;" vertex="1" parent="1rM6C2h5TiVr_Z7WdG6Z-230">
          <mxGeometry x="450" y="4.5" width="143.75" height="81" as="geometry" />
        </mxCell>
        <mxCell id="1rM6C2h5TiVr_Z7WdG6Z-233" value="" style="rounded=1;absoluteArcSize=1;html=1;arcSize=10;" vertex="1" parent="1">
          <mxGeometry x="30" y="840" width="625" height="90" as="geometry" />
        </mxCell>
        <mxCell id="1rM6C2h5TiVr_Z7WdG6Z-234" value="&lt;span style=&quot;text-align: left;&quot;&gt;优化三：除第一个相机外，如果该相机下没有识别到人脸则查询相邻上一个相机的人员信息，如果有则赋值。&lt;/span&gt;" style="html=1;shape=mxgraph.er.anchor;whiteSpace=wrap;" vertex="1" parent="1rM6C2h5TiVr_Z7WdG6Z-233">
          <mxGeometry width="410" height="90" as="geometry" />
        </mxCell>
        <mxCell id="1rM6C2h5TiVr_Z7WdG6Z-235" value="差" style="rounded=1;absoluteArcSize=1;html=1;arcSize=10;whiteSpace=wrap;points=[];strokeColor=inherit;fillColor=inherit;" vertex="1" parent="1rM6C2h5TiVr_Z7WdG6Z-233">
          <mxGeometry x="450" y="4.5" width="143.75" height="81" as="geometry" />
        </mxCell>
        <mxCell id="1rM6C2h5TiVr_Z7WdG6Z-236" value="" style="rounded=1;absoluteArcSize=1;html=1;arcSize=10;" vertex="1" parent="1">
          <mxGeometry x="30" y="970" width="625" height="90" as="geometry" />
        </mxCell>
        <mxCell id="1rM6C2h5TiVr_Z7WdG6Z-237" value="&lt;span style=&quot;text-align: left;&quot;&gt;优化四：除第一个相机外，如果该相机下没有识别到人脸则查询相邻上一个相机的人员信息，如果有则赋值。&lt;/span&gt;" style="html=1;shape=mxgraph.er.anchor;whiteSpace=wrap;" vertex="1" parent="1rM6C2h5TiVr_Z7WdG6Z-236">
          <mxGeometry width="410" height="90" as="geometry" />
        </mxCell>
        <mxCell id="1rM6C2h5TiVr_Z7WdG6Z-238" value="相对准确" style="rounded=1;absoluteArcSize=1;html=1;arcSize=10;whiteSpace=wrap;points=[];strokeColor=inherit;fillColor=inherit;" vertex="1" parent="1rM6C2h5TiVr_Z7WdG6Z-236">
          <mxGeometry x="450" y="4.5" width="143.75" height="81" as="geometry" />
        </mxCell>
      </root>
    </mxGraphModel>
  </diagram>
</mxfile>
